<svg width="203" height="82" viewBox="0 0 203 82" fill="none" xmlns="http://www.w3.org/2000/svg">
<path d="M40.8516 0H161.852C184.495 0 202.852 18.3563 202.852 41C202.852 63.6437 184.495 82 161.852 82H40.8516V0Z" fill="white"/>
<path d="M100.839 22C102.106 22 103.206 22.2133 104.139 22.64C105.072 23.0533 105.792 23.6533 106.299 24.44C106.806 25.2133 107.059 26.1267 107.059 27.18C107.059 28.2333 106.806 29.1467 106.299 29.92C105.792 30.6933 105.072 31.2933 104.139 31.72C103.206 32.1333 102.106 32.34 100.839 32.34H98.3991V36H94.4391V22H100.839ZM100.599 29.22C101.412 29.22 102.026 29.0467 102.439 28.7C102.852 28.34 103.059 27.8333 103.059 27.18C103.059 26.5267 102.852 26.02 102.439 25.66C102.026 25.3 101.412 25.12 100.599 25.12H98.3991V29.22H100.599ZM108.99 22H112.95V32.86H119.63V36H108.99V22ZM130.733 33.28H124.813L123.713 36H119.673L125.853 22H129.753L135.953 36H131.833L130.733 33.28ZM129.573 30.36L127.773 25.88L125.973 30.36H129.573ZM143.697 30.98V36H139.737V30.92L134.397 22H138.577L141.897 27.56L145.217 22H149.057L143.697 30.98Z" fill="#252525"/>
<path d="M159.296 25.81C160.296 25.81 161.101 26.11 161.711 26.71C162.331 27.31 162.641 28.2 162.641 29.38V34H160.301V29.74C160.301 29.1 160.161 28.625 159.881 28.315C159.601 27.995 159.196 27.835 158.666 27.835C158.076 27.835 157.606 28.02 157.256 28.39C156.906 28.75 156.731 29.29 156.731 30.01V34H154.391V25.93H156.626V26.875C156.936 26.535 157.321 26.275 157.781 26.095C158.241 25.905 158.746 25.81 159.296 25.81ZM168.767 25.81C170.017 25.81 170.977 26.11 171.647 26.71C172.317 27.3 172.652 28.195 172.652 29.395V34H170.462V32.995C170.022 33.745 169.202 34.12 168.002 34.12C167.382 34.12 166.842 34.015 166.382 33.805C165.932 33.595 165.587 33.305 165.347 32.935C165.107 32.565 164.987 32.145 164.987 31.675C164.987 30.925 165.267 30.335 165.827 29.905C166.397 29.475 167.272 29.26 168.452 29.26H170.312C170.312 28.75 170.157 28.36 169.847 28.09C169.537 27.81 169.072 27.67 168.452 27.67C168.022 27.67 167.597 27.74 167.177 27.88C166.767 28.01 166.417 28.19 166.127 28.42L165.287 26.785C165.727 26.475 166.252 26.235 166.862 26.065C167.482 25.895 168.117 25.81 168.767 25.81ZM168.587 32.545C168.987 32.545 169.342 32.455 169.652 32.275C169.962 32.085 170.182 31.81 170.312 31.45V30.625H168.707C167.747 30.625 167.267 30.94 167.267 31.57C167.267 31.87 167.382 32.11 167.612 32.29C167.852 32.46 168.177 32.545 168.587 32.545Z" fill="#FF9100"/>
<path d="M107.243 59L107.203 51.58L103.603 57.62H101.843L98.2631 51.78V59H94.6031V45H97.8631L102.783 53.08L107.583 45H110.843L110.883 59H107.243ZM120.745 59.28C119.265 59.28 117.932 58.9667 116.745 58.34C115.572 57.7133 114.645 56.8467 113.965 55.74C113.298 54.6333 112.965 53.3867 112.965 52C112.965 50.6133 113.298 49.3667 113.965 48.26C114.645 47.1533 115.572 46.2867 116.745 45.66C117.932 45.0333 119.265 44.72 120.745 44.72C122.225 44.72 123.552 45.0333 124.725 45.66C125.912 46.2867 126.838 47.1533 127.505 48.26C128.185 49.3667 128.525 50.6133 128.525 52C128.525 53.3867 128.185 54.6333 127.505 55.74C126.838 56.8467 125.912 57.7133 124.725 58.34C123.552 58.9667 122.225 59.28 120.745 59.28ZM120.745 56C121.452 56 122.092 55.8333 122.665 55.5C123.238 55.1667 123.692 54.7 124.025 54.1C124.358 53.4867 124.525 52.7867 124.525 52C124.525 51.2133 124.358 50.52 124.025 49.92C123.692 49.3067 123.238 48.8333 122.665 48.5C122.092 48.1667 121.452 48 120.745 48C120.038 48 119.398 48.1667 118.825 48.5C118.252 48.8333 117.798 49.3067 117.465 49.92C117.132 50.52 116.965 51.2133 116.965 52C116.965 52.7867 117.132 53.4867 117.465 54.1C117.798 54.7 118.252 55.1667 118.825 55.5C119.398 55.8333 120.038 56 120.745 56ZM143.919 45V59H140.659L134.479 51.54V59H130.599V45H133.859L140.039 52.46V45H143.919ZM157.953 55.94V59H146.713V45H157.693V48.06H150.633V50.42H156.853V53.38H150.633V55.94H157.953ZM167.533 53.98V59H163.573V53.92L158.233 45H162.413L165.733 50.56L169.053 45H172.893L167.533 53.98Z" fill="#252525"/>
<path d="M81.7031 41C81.7052 44.0221 81.3728 47.0351 80.7122 49.9841C79.6908 54.5406 77.8879 58.8857 75.3834 62.8269C72.1425 67.9513 67.8028 72.291 62.6784 75.5319C58.7373 78.0364 54.3921 79.8393 49.8356 80.8606C43.9191 82.1819 37.784 82.1819 31.8675 80.8606C27.311 79.8393 22.9658 78.0364 19.0247 75.5319C13.9003 72.291 9.5606 67.9513 6.31968 62.8269C3.81521 58.8857 2.01231 54.5406 0.990932 49.9841C-0.330311 44.0653 -0.330311 37.9281 0.990932 32.0094C2.69671 24.473 6.50206 17.5739 11.9664 12.1107C17.4308 6.64744 24.3308 2.84355 31.8675 1.13938C37.784 -0.181881 43.9191 -0.181881 49.8356 1.13938C57.3715 2.84544 64.2704 6.64995 69.7345 12.1129C75.1985 17.5758 79.0045 24.4739 80.7122 32.0094C81.3732 34.9605 81.7055 37.9757 81.7031 41Z" fill="#FFC839"/>
<path d="M40.8516 65.4433C54.3523 65.4433 65.2969 54.4988 65.2969 40.998C65.2969 27.4973 54.3523 16.5527 40.8516 16.5527C27.3508 16.5527 16.4062 27.4973 16.4062 40.998C16.4062 54.4988 27.3508 65.4433 40.8516 65.4433Z" fill="#FCF9F0"/>
<path d="M50.5962 46.3005C51.8884 45.0083 52.6144 43.2557 52.6144 41.4282C52.6144 39.6007 51.8884 37.8481 50.5962 36.5559L40.8516 26.8112L31.1069 36.5559C30.0338 37.6316 29.3464 39.0319 29.1516 40.5389C28.9568 42.0458 29.2656 43.5749 30.0299 44.8882C30.7942 46.2014 31.9711 47.2252 33.3776 47.8003C34.784 48.3754 36.3411 48.4694 37.8066 48.0678C37.5079 50.5957 36.6565 53.0269 35.3128 55.1888H46.3923C45.0483 53.027 44.1969 50.5958 43.8985 48.0678C45.0715 48.3915 46.3093 48.3985 47.4859 48.0881C48.6624 47.7776 49.7357 47.1608 50.5962 46.3005Z" fill="#2D3C6B"/>
<path d="M49.8356 1.13938L47.6044 9.33594H34.0987L31.8675 1.13938C37.784 -0.181881 43.9191 -0.181881 49.8356 1.13938Z" fill="#FF9100"/>
<path d="M49.8356 80.8606C43.9191 82.1819 37.784 82.1819 31.8675 80.8606L34.0987 72.6575H47.6044L49.8356 80.8606Z" fill="#FF9100"/>
<path d="M75.3834 19.1731L68.0137 23.3863L58.4653 13.8313L62.6719 6.46157C67.7999 9.70288 72.1421 14.0451 75.3834 19.1731Z" fill="#FF9100"/>
<path d="M23.2378 68.1622L19.0247 75.5319C13.9003 72.291 9.56059 67.9512 6.31967 62.8269L13.6894 58.6137L23.2378 68.1622Z" fill="#FF9100"/>
<path d="M81.7031 41C81.7052 44.0221 81.3728 47.0351 80.7122 49.9841L72.5156 47.7528V34.2472L80.7122 32.0094C81.3732 34.9605 81.7055 37.9757 81.7031 41Z" fill="#FF9100"/>
<path d="M9.18749 34.2472V47.7528L0.990932 49.9841C-0.330311 44.0653 -0.330311 37.9281 0.990932 32.0094L9.18749 34.2472Z" fill="#FF9100"/>
<path d="M75.3834 62.8269C72.1425 67.9512 67.8028 72.291 62.6784 75.5319L58.4653 68.1622L68.0137 58.6137L75.3834 62.8269Z" fill="#FF9100"/>
<path d="M23.2378 13.8313L13.6894 23.3863L6.31967 19.1731C9.56099 14.0451 13.9032 9.70288 19.0312 6.46157L23.2378 13.8313Z" fill="#FF9100"/>
</svg>
